<svg xmlns="http://www.w3.org/2000/svg" width="1024" height="1024" viewBox="0 0 1024 1024">
  <defs>
    <radialGradient id="bg" cx="50%" cy="42%" r="70%">
      <stop offset="0%" stop-color="#4A2C1A"/>
      <stop offset="60%" stop-color="#2C1810"/>
      <stop offset="100%" stop-color="#1A0E06"/>
    </radialGradient>
    <linearGradient id="gold" x1="0" y1="0" x2="0" y2="1">
      <stop offset="0%" stop-color="#F2D27A"/>
      <stop offset="50%" stop-color="#D4A843"/>
      <stop offset="100%" stop-color="#B8860B"/>
    </linearGradient>
    <radialGradient id="glow" cx="50%" cy="50%" r="50%">
      <stop offset="0%" stop-color="#FFE9A8" stop-opacity="0.95"/>
      <stop offset="55%" stop-color="#F2D27A" stop-opacity="0.45"/>
      <stop offset="100%" stop-color="#F2D27A" stop-opacity="0"/>
    </radialGradient>
  </defs>

  <rect width="1024" height="1024" rx="220" fill="url(#bg)"/>

  <!-- هالة نور -->
  <circle cx="512" cy="500" r="300" fill="url(#glow)"/>

  <!-- فانوس -->
  <g fill="none" stroke="url(#gold)" stroke-width="14" stroke-linejoin="round" stroke-linecap="round">
    <!-- حلقة التعليق -->
    <path d="M512 168 v40" />
    <ellipse cx="512" cy="150" rx="26" ry="20"/>
    <!-- غطاء علوي -->
    <path d="M430 250 h164 l-30 -42 h-104 z" fill="url(#gold)" stroke="none"/>
    <path d="M452 250 h120" />
    <!-- جسم الفانوس -->
    <path d="M438 270
             C 405 330 400 470 430 560
             C 445 610 470 650 512 660
             C 554 650 579 610 594 560
             C 624 470 619 330 586 270 Z"
          fill="rgba(212,168,67,0.12)"/>
    <!-- أضلاع -->
    <path d="M470 280 C 450 380 450 520 482 630"/>
    <path d="M554 280 C 574 380 574 520 542 630"/>
    <path d="M512 272 v382"/>
    <!-- قاعدة -->
    <path d="M452 668 h120 l-22 56 h-76 z" fill="url(#gold)" stroke="none"/>
    <path d="M474 742 h76"/>
  </g>

  <!-- شعلة -->
  <path d="M512 380 c -34 36 -40 84 0 118 c 40 -34 34 -82 0 -118 z" fill="url(#gold)"/>
  <path d="M512 420 c -16 18 -18 42 0 60 c 18 -18 16 -42 0 -60 z" fill="#FFF3D0"/>
</svg>
